<svg width="56" height="56" viewBox="0 0 56 56" fill="none" xmlns="http://www.w3.org/2000/svg">
<g id="Discord" clip-path="url(#clip0_99_598)">
<path id="Vector" d="M56 28C56 12.536 43.464 0 28 0C12.536 0 0 12.536 0 28C0 43.464 12.536 56 28 56C43.464 56 56 43.464 56 28Z" fill="#F6F6F6"/>
<path id="Vector_2" d="M42.0435 18.4101C39.4747 16.355 36.3921 15.3275 33.1383 15.1562L32.6245 15.6701C35.5358 16.355 38.1047 17.725 40.5022 19.6088C37.5909 18.0676 34.3371 17.0401 30.912 16.6975C29.8845 16.5263 29.0281 16.5263 28.0007 16.5263C26.9732 16.5263 26.1168 16.5263 25.0894 16.6975C21.6643 17.0401 18.4104 18.0676 15.4991 19.6088C17.8966 17.725 20.4655 16.355 23.3768 15.6701L22.863 15.1562C19.6092 15.3275 16.5266 16.355 13.9578 18.4101C11.0465 23.8903 9.50524 30.0554 9.33398 36.3917C11.9028 39.1318 15.4991 40.8444 19.2668 40.8444C19.2668 40.8444 20.4655 39.4744 21.3217 38.2755C19.0955 37.7618 17.0404 36.563 15.6704 34.6793C16.8691 35.3642 18.0679 36.0493 19.2668 36.563C20.808 37.248 22.3493 37.5906 23.8906 37.9331C25.2606 38.1042 26.6306 38.2755 28.0007 38.2755C29.3707 38.2755 30.7407 38.1042 32.1107 37.9331C33.652 37.5906 35.1933 37.248 36.7346 36.563C37.9334 36.0493 39.1322 35.3642 40.3309 34.6793C38.9609 36.563 36.9058 37.7618 34.6796 38.2755C35.5358 39.4744 36.7346 40.8444 36.7346 40.8444C40.5022 40.8444 44.0986 39.1318 46.6673 36.3917C46.4961 30.0554 44.9548 23.8903 42.0435 18.4101ZM22.3493 33.3091C20.6368 33.3091 19.0955 31.7678 19.0955 29.8841C19.0955 28.0003 20.6368 26.459 22.3493 26.459C24.0619 26.459 25.6032 28.0003 25.6032 29.8841C25.6032 31.7678 24.0619 33.3091 22.3493 33.3091ZM33.652 33.3091C31.9394 33.3091 30.3982 31.7678 30.3982 29.8841C30.3982 28.0003 31.9394 26.459 33.652 26.459C35.3645 26.459 36.9058 28.0003 36.9058 29.8841C36.9058 31.7678 35.3645 33.3091 33.652 33.3091Z" fill="#050006"/>
</g>
<defs>
<clipPath id="clip0_99_598">
<rect width="56" height="56" fill="white"/>
</clipPath>
</defs>
</svg>
