<svg width="319" height="306" viewBox="0 0 319 306" fill="none" xmlns="http://www.w3.org/2000/svg">
<mask id="path-1-outside-1_99_575" maskUnits="userSpaceOnUse" x="-4" y="-4" width="327" height="314" fill="black">
<rect fill="white" x="-4" y="-4" width="327" height="314"/>
<path d="M0.304 113V0.299992H46.994C58.6933 0.299992 67.9777 3.51999 74.847 9.95999C81.8237 16.2927 85.312 24.8257 85.312 35.559C85.312 46.2923 81.8237 54.879 74.847 61.319C67.9777 67.6517 58.6933 70.818 46.994 70.818H25.742V113H0.304ZM25.742 49.083H44.418C49.248 49.083 53.0047 47.9023 55.688 45.541C58.4787 43.0723 59.874 39.745 59.874 35.559C59.874 31.373 58.4787 28.0993 55.688 25.738C53.0047 23.2693 49.248 22.035 44.418 22.035H25.742V49.083ZM159.573 113L151.362 89.816H111.112L102.901 113H76.4973L119.162 0.299992H143.151L185.816 113H159.573ZM118.84 68.564H143.634L131.237 33.627L118.84 68.564ZM196.991 113V0.299992H225.005L257.688 76.936L290.371 0.299992H318.385V113H294.718V47.473L267.026 113H248.511L220.658 47.473V113H196.991ZM0.143 306V193.3H25.42L69.212 265.75V193.3H92.879V306H67.602L23.81 233.55V306H0.143ZM113.189 306V193.3H191.435V215.035H138.627V236.931H181.131V258.827H138.627V306H113.189ZM230.915 306V215.035H197.749V193.3H289.358V215.035H256.353V306H230.915Z"/>
</mask>
<path d="M0.304001 113H-3.696V117H0.304001V113ZM0.304001 0.299992V-3.70001H-3.696V0.299992H0.304001ZM74.847 9.95999L72.1112 12.8781L72.1347 12.9002L72.1586 12.9218L74.847 9.95999ZM74.847 61.319L77.5582 64.26L77.5601 64.2582L74.847 61.319ZM25.742 70.818V66.818H21.742V70.818H25.742ZM25.742 113V117H29.742V113H25.742ZM25.742 49.083H21.742V53.083H25.742V49.083ZM55.688 45.541L58.3305 48.5439L58.3383 48.537L55.688 45.541ZM55.688 25.738L52.9798 28.6817L53.0409 28.7379L53.1042 28.7915L55.688 25.738ZM25.742 22.035V18.035H21.742V22.035H25.742ZM4.304 113V0.299992H-3.696V113H4.304ZM0.304001 4.29999H46.994V-3.70001H0.304001V4.29999ZM46.994 4.29999C57.9354 4.29999 66.1524 7.29171 72.1112 12.8781L77.5828 7.04184C69.803 -0.251732 59.4513 -3.70001 46.994 -3.70001V4.29999ZM72.1586 12.9218C78.1796 18.3871 81.312 25.7803 81.312 35.559H89.312C89.312 23.871 85.4677 14.1982 77.5354 6.99817L72.1586 12.9218ZM81.312 35.559C81.312 45.3368 78.1791 52.7996 72.1339 58.3798L77.5601 64.2582C85.4683 56.9584 89.312 47.2479 89.312 35.559H81.312ZM72.1358 58.378C66.1788 63.8696 57.9529 66.818 46.994 66.818V74.818C59.4338 74.818 69.7765 71.4337 77.5582 64.26L72.1358 58.378ZM46.994 66.818H25.742V74.818H46.994V66.818ZM21.742 70.818V113H29.742V70.818H21.742ZM25.742 109H0.304001V117H25.742V109ZM25.742 53.083H44.418V45.083H25.742V53.083ZM44.418 53.083C49.876 53.083 54.694 51.744 58.3305 48.5438L53.0455 42.5381C51.3153 44.0607 48.62 45.083 44.418 45.083V53.083ZM58.3383 48.537C62.0986 45.2105 63.874 40.7332 63.874 35.559H55.874C55.874 38.7568 54.8587 40.9341 53.0377 42.545L58.3383 48.537ZM63.874 35.559C63.874 30.3869 62.0966 25.9208 58.2718 22.6844L53.1042 28.7915C54.8607 30.2778 55.874 32.359 55.874 35.559H63.874ZM58.3962 22.7943C54.7614 19.4502 49.9182 18.035 44.418 18.035V26.035C48.5778 26.035 51.2479 27.0884 52.9798 28.6817L58.3962 22.7943ZM44.418 18.035H25.742V26.035H44.418V18.035ZM21.742 22.035V49.083H29.742V22.035H21.742ZM159.573 113L155.803 114.335L156.746 117H159.573V113ZM151.362 89.816L155.133 88.4806L154.189 85.816H151.362V89.816ZM111.112 89.816V85.816H108.285L107.342 88.4806L111.112 89.816ZM102.901 113V117H105.728L106.672 114.335L102.901 113ZM76.4973 113L72.7563 111.584L70.7059 117H76.4973V113ZM119.162 0.299992V-3.70001H116.399L115.421 -1.11621L119.162 0.299992ZM143.151 0.299992L146.892 -1.11621L145.914 -3.70001H143.151V0.299992ZM185.816 113V117H191.608L189.557 111.584L185.816 113ZM118.84 68.564L115.071 67.2264L113.177 72.564H118.84V68.564ZM143.634 68.564V72.564H149.298L147.404 67.2264L143.634 68.564ZM131.237 33.627L135.007 32.2894L131.237 21.6656L127.468 32.2894L131.237 33.627ZM163.344 111.665L155.133 88.4806L147.592 91.1514L155.803 114.335L163.344 111.665ZM151.362 85.816H111.112V93.816H151.362V85.816ZM107.342 88.4806L99.1307 111.665L106.672 114.335L114.883 91.1514L107.342 88.4806ZM102.901 109H76.4973V117H102.901V109ZM80.2382 114.416L122.903 1.71619L115.421 -1.11621L72.7563 111.584L80.2382 114.416ZM119.162 4.29999H143.151V-3.70001H119.162V4.29999ZM139.41 1.71619L182.075 114.416L189.557 111.584L146.892 -1.11621L139.41 1.71619ZM185.816 109H159.573V117H185.816V109ZM118.84 72.564H143.634V64.564H118.84V72.564ZM147.404 67.2264L135.007 32.2894L127.468 34.9646L139.865 69.9016L147.404 67.2264ZM127.468 32.2894L115.071 67.2264L122.61 69.9016L135.007 34.9646L127.468 32.2894ZM196.991 113H192.991V117H196.991V113ZM196.991 0.299992V-3.70001H192.991V0.299992H196.991ZM225.005 0.299992L228.684 -1.26915L227.647 -3.70001H225.005V0.299992ZM257.688 76.936L254.008 78.5051L257.688 87.1326L261.367 78.5051L257.688 76.936ZM290.371 0.299992V-3.70001H287.728L286.691 -1.26915L290.371 0.299992ZM318.385 0.299992H322.385V-3.70001H318.385V0.299992ZM318.385 113V117H322.385V113H318.385ZM294.718 113H290.718V117H294.718V113ZM294.718 47.473H298.718L291.033 45.9159L294.718 47.473ZM267.026 113V117H269.678L270.71 114.557L267.026 113ZM248.511 113L244.829 114.565L245.865 117H248.511V113ZM220.658 47.473L224.339 45.9082L216.658 47.473H220.658ZM220.658 113V117H224.658V113H220.658ZM200.991 113V0.299992H192.991V113H200.991ZM196.991 4.29999H225.005V-3.70001H196.991V4.29999ZM221.325 1.86914L254.008 78.5051L261.367 75.3669L228.684 -1.26915L221.325 1.86914ZM261.367 78.5051L294.05 1.86914L286.691 -1.26915L254.008 75.3669L261.367 78.5051ZM290.371 4.29999H318.385V-3.70001H290.371V4.29999ZM314.385 0.299992V113H322.385V0.299992H314.385ZM318.385 109H294.718V117H318.385V109ZM298.718 113V47.473H290.718V113H298.718ZM291.033 45.9159L263.341 111.443L270.71 114.557L298.402 49.0301L291.033 45.9159ZM267.026 109H248.511V117H267.026V109ZM252.192 111.435L224.339 45.9082L216.976 49.0378L244.829 114.565L252.192 111.435ZM216.658 47.473V113H224.658V47.473H216.658ZM220.658 109H196.991V117H220.658V109ZM0.143001 306H-3.857V310H0.143001V306ZM0.143001 193.3V189.3H-3.857V193.3H0.143001ZM25.42 193.3L28.8432 191.231L27.6762 189.3H25.42V193.3ZM69.212 265.75L65.7888 267.819L73.212 280.1V265.75H69.212ZM69.212 193.3V189.3H65.212V193.3H69.212ZM92.879 193.3H96.879V189.3H92.879V193.3ZM92.879 306V310H96.879V306H92.879ZM67.602 306L64.1788 308.069L65.3458 310H67.602V306ZM23.81 233.55L27.2332 231.481L19.81 219.2V233.55H23.81ZM23.81 306V310H27.81V306H23.81ZM4.143 306V193.3H-3.857V306H4.143ZM0.143001 197.3H25.42V189.3H0.143001V197.3ZM21.9968 195.369L65.7888 267.819L72.6352 263.681L28.8432 191.231L21.9968 195.369ZM73.212 265.75V193.3H65.212V265.75H73.212ZM69.212 197.3H92.879V189.3H69.212V197.3ZM88.879 193.3V306H96.879V193.3H88.879ZM92.879 302H67.602V310H92.879V302ZM71.0252 303.931L27.2332 231.481L20.3868 235.619L64.1788 308.069L71.0252 303.931ZM19.81 233.55V306H27.81V233.55H19.81ZM23.81 302H0.143001V310H23.81V302ZM113.189 306H109.189V310H113.189V306ZM113.189 193.3V189.3H109.189V193.3H113.189ZM191.435 193.3H195.435V189.3H191.435V193.3ZM191.435 215.035V219.035H195.435V215.035H191.435ZM138.627 215.035V211.035H134.627V215.035H138.627ZM138.627 236.931H134.627V240.931H138.627V236.931ZM181.131 236.931H185.131V232.931H181.131V236.931ZM181.131 258.827V262.827H185.131V258.827H181.131ZM138.627 258.827V254.827H134.627V258.827H138.627ZM138.627 306V310H142.627V306H138.627ZM117.189 306V193.3H109.189V306H117.189ZM113.189 197.3H191.435V189.3H113.189V197.3ZM187.435 193.3V215.035H195.435V193.3H187.435ZM191.435 211.035H138.627V219.035H191.435V211.035ZM134.627 215.035V236.931H142.627V215.035H134.627ZM138.627 240.931H181.131V232.931H138.627V240.931ZM177.131 236.931V258.827H185.131V236.931H177.131ZM181.131 254.827H138.627V262.827H181.131V254.827ZM134.627 258.827V306H142.627V258.827H134.627ZM138.627 302H113.189V310H138.627V302ZM230.915 306H226.915V310H230.915V306ZM230.915 215.035H234.915V211.035H230.915V215.035ZM197.749 215.035H193.749V219.035H197.749V215.035ZM197.749 193.3V189.3H193.749V193.3H197.749ZM289.358 193.3H293.358V189.3H289.358V193.3ZM289.358 215.035V219.035H293.358V215.035H289.358ZM256.353 215.035V211.035H252.353V215.035H256.353ZM256.353 306V310H260.353V306H256.353ZM234.915 306V215.035H226.915V306H234.915ZM230.915 211.035H197.749V219.035H230.915V211.035ZM201.749 215.035V193.3H193.749V215.035H201.749ZM197.749 197.3H289.358V189.3H197.749V197.3ZM285.358 193.3V215.035H293.358V193.3H285.358ZM289.358 211.035H256.353V219.035H289.358V211.035ZM252.353 215.035V306H260.353V215.035H252.353ZM256.353 302H230.915V310H256.353V302Z" fill="#D2D2D2" mask="url(#path-1-outside-1_99_575)"/>
</svg>
