<svg width="1014" height="1017" viewBox="0 0 1014 1017" fill="none" xmlns="http://www.w3.org/2000/svg">
<g opacity="0.99">
<mask id="path-1-outside-1_310_77" maskUnits="userSpaceOnUse" x="503.411" y="408.546" width="385.303" height="198.62" fill="black">
<rect fill="white" x="503.411" y="408.546" width="385.303" height="198.62"/>
<path d="M857.077 416.359C865.125 446.935 869.295 478.397 869.484 509.973L507 508.5L857.077 416.359Z"/>
</mask>
<path d="M857.077 416.359C865.125 446.935 869.295 478.397 869.484 509.973L507 508.5L857.077 416.359Z" fill="#576827"/>
<path d="M857.077 416.359C865.125 446.935 869.295 478.397 869.484 509.973L507 508.5L857.077 416.359Z" stroke="#FEFEFE" stroke-width="12" mask="url(#path-1-outside-1_310_77)"/>
</g>
<mask id="path-2-inside-2_310_77" fill="white">
<path d="M808.45 308.071C829.918 340.359 846.273 375.757 856.915 412.964L507 508.5L808.45 308.071Z"/>
</mask>
<path d="M808.45 308.071C829.918 340.359 846.273 375.757 856.915 412.964L507 508.5L808.45 308.071Z" fill="#9F9C5D" stroke="white" stroke-width="12" mask="url(#path-2-inside-2_310_77)"/>
<mask id="path-3-outside-3_310_77" maskUnits="userSpaceOnUse" x="466.841" y="121.559" width="360.73" height="398.305" fill="black">
<rect fill="white" x="466.841" y="121.559" width="360.73" height="398.305"/>
<path d="M473.683 147.128C539.742 143.232 605.613 156.786 664.416 186.376C723.219 215.966 772.795 260.505 807.964 315.341L495 508.5L473.683 147.128Z"/>
</mask>
<path d="M473.683 147.128C539.742 143.232 605.613 156.786 664.416 186.376C723.219 215.966 772.795 260.505 807.964 315.341L495 508.5L473.683 147.128Z" fill="#6B972B"/>
<path d="M473.683 147.128C539.742 143.232 605.613 156.786 664.416 186.376C723.219 215.966 772.795 260.505 807.964 315.341L495 508.5L473.683 147.128Z" stroke="white" stroke-width="12" mask="url(#path-3-outside-3_310_77)"/>
<g filter="url(#filter0_d_310_77)">
<mask id="path-4-outside-4_310_77" maskUnits="userSpaceOnUse" x="139" y="133" width="736" height="752" fill="black">
<rect fill="white" x="139" y="133" width="736" height="752"/>
<path d="M869 508.5C869 580.513 848.384 650.956 809.687 711.17C770.99 771.384 715.898 818.743 651.185 847.426C586.472 876.108 514.957 884.864 445.434 872.617C375.911 860.37 311.409 827.653 259.858 778.489C208.307 729.325 171.955 665.856 155.269 595.886C138.584 525.916 142.293 452.495 165.941 384.648C189.589 316.801 232.145 257.486 288.377 213.995C344.609 170.504 412.065 144.733 482.454 139.85L507 508.5H869Z"/>
</mask>
<path d="M869 508.5C869 580.513 848.384 650.956 809.687 711.17C770.99 771.384 715.898 818.743 651.185 847.426C586.472 876.108 514.957 884.864 445.434 872.617C375.911 860.37 311.409 827.653 259.858 778.489C208.307 729.325 171.955 665.856 155.269 595.886C138.584 525.916 142.293 452.495 165.941 384.648C189.589 316.801 232.145 257.486 288.377 213.995C344.609 170.504 412.065 144.733 482.454 139.85L507 508.5H869Z" fill="#582E2F"/>
<path d="M869 508.5C869 580.513 848.384 650.956 809.687 711.17C770.99 771.384 715.898 818.743 651.185 847.426C586.472 876.108 514.957 884.864 445.434 872.617C375.911 860.37 311.409 827.653 259.858 778.489C208.307 729.325 171.955 665.856 155.269 595.886C138.584 525.916 142.293 452.495 165.941 384.648C189.589 316.801 232.145 257.486 288.377 213.995C344.609 170.504 412.065 144.733 482.454 139.85L507 508.5H869Z" stroke="white" stroke-width="12" mask="url(#path-4-outside-4_310_77)"/>
</g>
<path d="M19.8068 539L29.4545 519.909V519.75H18.2159V515.727H34.5455V519.807L24.8864 539H19.8068ZM45.9886 539.318C44.2917 539.318 42.7803 539.027 41.4545 538.443C40.1364 537.852 39.0947 537.042 38.3295 536.011C37.572 534.973 37.1818 533.777 37.1591 532.42H42.1136C42.1439 532.989 42.3295 533.489 42.6705 533.92C43.0189 534.345 43.4811 534.674 44.0568 534.909C44.6326 535.144 45.2803 535.261 46 535.261C46.75 535.261 47.4129 535.129 47.9886 534.864C48.5644 534.598 49.0152 534.231 49.3409 533.761C49.6667 533.292 49.8295 532.75 49.8295 532.136C49.8295 531.515 49.6553 530.966 49.3068 530.489C48.9659 530.004 48.4735 529.625 47.8295 529.352C47.1932 529.08 46.4356 528.943 45.5568 528.943H43.3864V525.33H45.5568C46.2992 525.33 46.9545 525.201 47.5227 524.943C48.0985 524.686 48.5455 524.33 48.8636 523.875C49.1818 523.413 49.3409 522.875 49.3409 522.261C49.3409 521.678 49.2008 521.167 48.9205 520.727C48.6477 520.28 48.2614 519.932 47.7614 519.682C47.2689 519.432 46.6932 519.307 46.0341 519.307C45.3674 519.307 44.7576 519.428 44.2045 519.67C43.6515 519.905 43.2083 520.242 42.875 520.682C42.5417 521.121 42.3636 521.636 42.3409 522.227H37.625C37.6477 520.886 38.0303 519.705 38.7727 518.682C39.5152 517.659 40.5152 516.86 41.7727 516.284C43.0379 515.701 44.4659 515.409 46.0568 515.409C47.6629 515.409 49.0682 515.701 50.2727 516.284C51.4773 516.867 52.4129 517.655 53.0795 518.648C53.7538 519.633 54.0871 520.739 54.0795 521.966C54.0871 523.269 53.6818 524.356 52.8636 525.227C52.053 526.098 50.9962 526.652 49.6932 526.886V527.068C51.4053 527.288 52.7083 527.883 53.6023 528.852C54.5038 529.814 54.9508 531.019 54.9432 532.466C54.9508 533.792 54.5682 534.97 53.7955 536C53.0303 537.03 51.9735 537.841 50.625 538.432C49.2765 539.023 47.7311 539.318 45.9886 539.318ZM60.6989 539.295C59.9489 539.295 59.3049 539.03 58.767 538.5C58.2367 537.962 57.9716 537.318 57.9716 536.568C57.9716 535.826 58.2367 535.189 58.767 534.659C59.3049 534.129 59.9489 533.864 60.6989 533.864C61.4261 533.864 62.0625 534.129 62.608 534.659C63.1534 535.189 63.4261 535.826 63.4261 536.568C63.4261 537.068 63.2973 537.527 63.0398 537.943C62.7898 538.352 62.4602 538.682 62.0511 538.932C61.642 539.174 61.1913 539.295 60.6989 539.295ZM75.3381 515.409C76.535 515.409 77.6866 515.61 78.7926 516.011C79.9063 516.413 80.8987 517.053 81.7699 517.932C82.6487 518.811 83.3419 519.977 83.8494 521.432C84.3646 522.879 84.6259 524.655 84.6335 526.761C84.6335 528.739 84.41 530.504 83.9631 532.057C83.5237 533.602 82.8911 534.917 82.0653 536C81.2396 537.083 80.2434 537.909 79.0767 538.477C77.91 539.038 76.607 539.318 75.1676 539.318C73.6146 539.318 72.2434 539.019 71.054 538.42C69.8646 537.814 68.9063 536.992 68.179 535.955C67.4593 534.909 67.0237 533.735 66.8722 532.432H71.7244C71.9138 533.28 72.3116 533.939 72.9176 534.409C73.5237 534.871 74.2737 535.102 75.1676 535.102C76.6828 535.102 77.8343 534.443 78.6222 533.125C79.41 531.799 79.8078 529.985 79.8153 527.682H79.6562C79.3078 528.364 78.8381 528.951 78.2472 529.443C77.6563 529.928 76.9782 530.303 76.2131 530.568C75.4555 530.833 74.6487 530.966 73.7926 530.966C72.4214 530.966 71.1979 530.644 70.1222 530C69.0464 529.356 68.1979 528.47 67.5767 527.341C66.9555 526.212 66.6449 524.924 66.6449 523.477C66.6373 521.917 66.9972 520.527 67.7244 519.307C68.4517 518.087 69.4669 517.133 70.7699 516.443C72.0805 515.746 73.6032 515.402 75.3381 515.409ZM75.3722 519.273C74.607 519.273 73.9252 519.455 73.3267 519.818C72.7358 520.182 72.2661 520.67 71.9176 521.284C71.5767 521.898 71.41 522.583 71.4176 523.341C71.4176 524.106 71.5843 524.795 71.9176 525.409C72.2585 526.015 72.7206 526.5 73.304 526.864C73.8949 527.22 74.5691 527.398 75.3267 527.398C75.8949 527.398 76.4214 527.292 76.9062 527.08C77.3911 526.867 77.8116 526.576 78.1676 526.205C78.5313 525.826 78.8153 525.39 79.0199 524.898C79.2244 524.405 79.3267 523.883 79.3267 523.33C79.3191 522.595 79.1449 521.92 78.804 521.307C78.4631 520.693 77.9934 520.201 77.3949 519.83C76.7964 519.458 76.1222 519.273 75.3722 519.273ZM88.0426 539V535.455L96.3267 527.784C97.0313 527.102 97.6222 526.489 98.0994 525.943C98.5843 525.398 98.9517 524.864 99.2017 524.341C99.4517 523.811 99.5767 523.239 99.5767 522.625C99.5767 521.943 99.4214 521.356 99.1108 520.864C98.8002 520.364 98.3759 519.981 97.8381 519.716C97.3002 519.443 96.6903 519.307 96.0085 519.307C95.2964 519.307 94.6752 519.451 94.1449 519.739C93.6146 520.027 93.2055 520.439 92.9176 520.977C92.6297 521.515 92.4858 522.155 92.4858 522.898H87.8153C87.8153 521.375 88.16 520.053 88.8494 518.932C89.5388 517.811 90.5047 516.943 91.7472 516.33C92.9896 515.716 94.4214 515.409 96.0426 515.409C97.7093 515.409 99.16 515.705 100.395 516.295C101.637 516.879 102.603 517.689 103.293 518.727C103.982 519.765 104.327 520.955 104.327 522.295C104.327 523.174 104.152 524.042 103.804 524.898C103.463 525.754 102.853 526.705 101.974 527.75C101.096 528.788 99.857 530.034 98.2585 531.489L94.8608 534.818V534.977H104.634V539H88.0426ZM120.938 534.636V533.409C120.938 532.477 121.134 531.621 121.528 530.841C121.93 530.053 122.509 529.424 123.267 528.955C124.032 528.477 124.964 528.239 126.062 528.239C127.176 528.239 128.112 528.473 128.869 528.943C129.634 529.413 130.21 530.042 130.597 530.83C130.991 531.61 131.188 532.47 131.188 533.409V534.636C131.188 535.568 130.991 536.428 130.597 537.216C130.203 537.996 129.623 538.621 128.858 539.091C128.093 539.568 127.161 539.807 126.062 539.807C124.949 539.807 124.013 539.568 123.256 539.091C122.498 538.621 121.922 537.996 121.528 537.216C121.134 536.428 120.938 535.568 120.938 534.636ZM124.244 533.409V534.636C124.244 535.174 124.373 535.682 124.631 536.159C124.896 536.636 125.373 536.875 126.062 536.875C126.752 536.875 127.222 536.64 127.472 536.17C127.729 535.701 127.858 535.189 127.858 534.636V533.409C127.858 532.856 127.737 532.341 127.494 531.864C127.252 531.386 126.775 531.148 126.062 531.148C125.381 531.148 124.907 531.386 124.642 531.864C124.377 532.341 124.244 532.856 124.244 533.409ZM108.994 521.318V520.091C108.994 519.152 109.195 518.292 109.597 517.511C109.998 516.723 110.578 516.095 111.335 515.625C112.1 515.155 113.025 514.92 114.108 514.92C115.229 514.92 116.169 515.155 116.926 515.625C117.684 516.095 118.259 516.723 118.653 517.511C119.047 518.292 119.244 519.152 119.244 520.091V521.318C119.244 522.258 119.044 523.117 118.642 523.898C118.248 524.678 117.669 525.303 116.903 525.773C116.146 526.235 115.214 526.466 114.108 526.466C113.002 526.466 112.066 526.231 111.301 525.761C110.544 525.284 109.968 524.659 109.574 523.886C109.188 523.106 108.994 522.25 108.994 521.318ZM112.324 520.091V521.318C112.324 521.871 112.453 522.383 112.71 522.852C112.975 523.322 113.441 523.557 114.108 523.557C114.805 523.557 115.278 523.322 115.528 522.852C115.786 522.383 115.915 521.871 115.915 521.318V520.091C115.915 519.538 115.794 519.023 115.551 518.545C115.309 518.068 114.828 517.83 114.108 517.83C113.434 517.83 112.968 518.072 112.71 518.557C112.453 519.042 112.324 519.553 112.324 520.091ZM110.494 539L126.494 515.727H129.472L113.472 539H110.494Z" fill="black"/>
<path d="M728.011 169.727V193H723.091V174.398H722.955L717.625 177.739V173.375L723.386 169.727H728.011ZM734.463 193L744.111 173.909V173.75H732.872V169.727H749.202V173.807L739.543 193H734.463ZM765.312 188.636V187.409C765.312 186.477 765.509 185.621 765.903 184.841C766.305 184.053 766.884 183.424 767.642 182.955C768.407 182.477 769.339 182.239 770.438 182.239C771.551 182.239 772.487 182.473 773.244 182.943C774.009 183.413 774.585 184.042 774.972 184.83C775.366 185.61 775.562 186.47 775.562 187.409V188.636C775.562 189.568 775.366 190.428 774.972 191.216C774.578 191.996 773.998 192.621 773.233 193.091C772.468 193.568 771.536 193.807 770.438 193.807C769.324 193.807 768.388 193.568 767.631 193.091C766.873 192.621 766.297 191.996 765.903 191.216C765.509 190.428 765.312 189.568 765.312 188.636ZM768.619 187.409V188.636C768.619 189.174 768.748 189.682 769.006 190.159C769.271 190.636 769.748 190.875 770.438 190.875C771.127 190.875 771.597 190.64 771.847 190.17C772.104 189.701 772.233 189.189 772.233 188.636V187.409C772.233 186.856 772.112 186.341 771.869 185.864C771.627 185.386 771.15 185.148 770.438 185.148C769.756 185.148 769.282 185.386 769.017 185.864C768.752 186.341 768.619 186.856 768.619 187.409ZM753.369 175.318V174.091C753.369 173.152 753.57 172.292 753.972 171.511C754.373 170.723 754.953 170.095 755.71 169.625C756.475 169.155 757.4 168.92 758.483 168.92C759.604 168.92 760.544 169.155 761.301 169.625C762.059 170.095 762.634 170.723 763.028 171.511C763.422 172.292 763.619 173.152 763.619 174.091V175.318C763.619 176.258 763.419 177.117 763.017 177.898C762.623 178.678 762.044 179.303 761.278 179.773C760.521 180.235 759.589 180.466 758.483 180.466C757.377 180.466 756.441 180.231 755.676 179.761C754.919 179.284 754.343 178.659 753.949 177.886C753.563 177.106 753.369 176.25 753.369 175.318ZM756.699 174.091V175.318C756.699 175.871 756.828 176.383 757.085 176.852C757.35 177.322 757.816 177.557 758.483 177.557C759.18 177.557 759.653 177.322 759.903 176.852C760.161 176.383 760.29 175.871 760.29 175.318V174.091C760.29 173.538 760.169 173.023 759.926 172.545C759.684 172.068 759.203 171.83 758.483 171.83C757.809 171.83 757.343 172.072 757.085 172.557C756.828 173.042 756.699 173.553 756.699 174.091ZM754.869 193L770.869 169.727H773.847L757.847 193H754.869Z" fill="black"/>
<path d="M887.386 360.318C885.78 360.318 884.348 360.023 883.091 359.432C881.841 358.841 880.848 358.027 880.114 356.989C879.379 355.951 878.996 354.761 878.966 353.42H883.739C883.792 354.322 884.17 355.053 884.875 355.614C885.58 356.174 886.417 356.455 887.386 356.455C888.159 356.455 888.841 356.284 889.432 355.943C890.03 355.595 890.496 355.114 890.83 354.5C891.17 353.879 891.341 353.167 891.341 352.364C891.341 351.545 891.167 350.826 890.818 350.205C890.477 349.583 890.004 349.098 889.398 348.75C888.792 348.402 888.098 348.223 887.318 348.216C886.636 348.216 885.973 348.356 885.33 348.636C884.693 348.917 884.197 349.299 883.841 349.784L879.466 349L880.568 336.727H894.795V340.75H884.625L884.023 346.58H884.159C884.568 346.004 885.186 345.527 886.011 345.148C886.837 344.769 887.761 344.58 888.784 344.58C890.186 344.58 891.436 344.909 892.534 345.568C893.633 346.227 894.5 347.133 895.136 348.284C895.773 349.428 896.087 350.746 896.08 352.239C896.087 353.807 895.723 355.201 894.989 356.42C894.261 357.633 893.242 358.587 891.932 359.284C890.629 359.973 889.114 360.318 887.386 360.318ZM912.25 355.636V354.409C912.25 353.477 912.447 352.621 912.841 351.841C913.242 351.053 913.822 350.424 914.58 349.955C915.345 349.477 916.277 349.239 917.375 349.239C918.489 349.239 919.424 349.473 920.182 349.943C920.947 350.413 921.523 351.042 921.909 351.83C922.303 352.61 922.5 353.47 922.5 354.409V355.636C922.5 356.568 922.303 357.428 921.909 358.216C921.515 358.996 920.936 359.621 920.17 360.091C919.405 360.568 918.473 360.807 917.375 360.807C916.261 360.807 915.326 360.568 914.568 360.091C913.811 359.621 913.235 358.996 912.841 358.216C912.447 357.428 912.25 356.568 912.25 355.636ZM915.557 354.409V355.636C915.557 356.174 915.686 356.682 915.943 357.159C916.208 357.636 916.686 357.875 917.375 357.875C918.064 357.875 918.534 357.64 918.784 357.17C919.042 356.701 919.17 356.189 919.17 355.636V354.409C919.17 353.856 919.049 353.341 918.807 352.864C918.564 352.386 918.087 352.148 917.375 352.148C916.693 352.148 916.22 352.386 915.955 352.864C915.689 353.341 915.557 353.856 915.557 354.409ZM900.307 342.318V341.091C900.307 340.152 900.508 339.292 900.909 338.511C901.311 337.723 901.89 337.095 902.648 336.625C903.413 336.155 904.337 335.92 905.42 335.92C906.542 335.92 907.481 336.155 908.239 336.625C908.996 337.095 909.572 337.723 909.966 338.511C910.36 339.292 910.557 340.152 910.557 341.091V342.318C910.557 343.258 910.356 344.117 909.955 344.898C909.561 345.678 908.981 346.303 908.216 346.773C907.458 347.235 906.527 347.466 905.42 347.466C904.314 347.466 903.379 347.231 902.614 346.761C901.856 346.284 901.28 345.659 900.886 344.886C900.5 344.106 900.307 343.25 900.307 342.318ZM903.636 341.091V342.318C903.636 342.871 903.765 343.383 904.023 343.852C904.288 344.322 904.754 344.557 905.42 344.557C906.117 344.557 906.591 344.322 906.841 343.852C907.098 343.383 907.227 342.871 907.227 342.318V341.091C907.227 340.538 907.106 340.023 906.864 339.545C906.621 339.068 906.14 338.83 905.42 338.83C904.746 338.83 904.28 339.072 904.023 339.557C903.765 340.042 903.636 340.553 903.636 341.091ZM901.807 360L917.807 336.727H920.784L904.784 360H901.807Z" fill="#010101"/>
<path d="M885.534 475.909V472.034L895.25 456.727H898.591V462.091H896.614L890.489 471.784V471.966H904.296V475.909H885.534ZM896.705 480V474.727L896.796 473.011V456.727H901.409V480H896.705ZM910.012 480.295C909.262 480.295 908.618 480.03 908.08 479.5C907.549 478.962 907.284 478.318 907.284 477.568C907.284 476.826 907.549 476.189 908.08 475.659C908.618 475.129 909.262 474.864 910.012 474.864C910.739 474.864 911.375 475.129 911.921 475.659C912.466 476.189 912.739 476.826 912.739 477.568C912.739 478.068 912.61 478.527 912.353 478.943C912.103 479.352 911.773 479.682 911.364 479.932C910.955 480.174 910.504 480.295 910.012 480.295ZM924.855 480.511C922.901 480.504 921.219 480.023 919.81 479.068C918.408 478.114 917.329 476.731 916.571 474.92C915.821 473.11 915.45 470.932 915.458 468.386C915.458 465.848 915.833 463.686 916.583 461.898C917.34 460.11 918.42 458.75 919.821 457.818C921.23 456.879 922.908 456.409 924.855 456.409C926.802 456.409 928.477 456.879 929.878 457.818C931.287 458.758 932.371 460.121 933.128 461.909C933.886 463.689 934.261 465.848 934.253 468.386C934.253 470.939 933.874 473.121 933.117 474.932C932.367 476.742 931.291 478.125 929.889 479.08C928.488 480.034 926.81 480.511 924.855 480.511ZM924.855 476.432C926.189 476.432 927.253 475.761 928.049 474.42C928.844 473.08 929.238 471.068 929.23 468.386C929.23 466.621 929.049 465.152 928.685 463.977C928.329 462.803 927.821 461.92 927.162 461.33C926.511 460.739 925.742 460.443 924.855 460.443C923.53 460.443 922.469 461.106 921.674 462.432C920.878 463.758 920.477 465.742 920.469 468.386C920.469 470.174 920.647 471.667 921.003 472.864C921.367 474.053 921.878 474.947 922.537 475.545C923.196 476.136 923.969 476.432 924.855 476.432ZM946.443 480.318C944.693 480.318 943.137 480.034 941.773 479.466C940.417 478.89 939.353 478.106 938.58 477.114C937.807 476.121 937.421 474.996 937.421 473.739C937.421 472.769 937.64 471.879 938.08 471.068C938.527 470.25 939.133 469.572 939.898 469.034C940.663 468.489 941.519 468.14 942.466 467.989V467.83C941.224 467.58 940.216 466.977 939.443 466.023C938.671 465.061 938.284 463.943 938.284 462.67C938.284 461.466 938.637 460.394 939.341 459.455C940.046 458.508 941.012 457.765 942.239 457.227C943.474 456.682 944.875 456.409 946.443 456.409C948.012 456.409 949.409 456.682 950.637 457.227C951.871 457.773 952.841 458.519 953.546 459.466C954.25 460.405 954.606 461.473 954.614 462.67C954.606 463.951 954.212 465.068 953.432 466.023C952.652 466.977 951.652 467.58 950.432 467.83V467.989C951.364 468.14 952.209 468.489 952.966 469.034C953.731 469.572 954.337 470.25 954.784 471.068C955.239 471.879 955.47 472.769 955.478 473.739C955.47 474.996 955.08 476.121 954.307 477.114C953.534 478.106 952.466 478.89 951.103 479.466C949.746 480.034 948.193 480.318 946.443 480.318ZM946.443 476.705C947.224 476.705 947.906 476.564 948.489 476.284C949.072 475.996 949.527 475.602 949.853 475.102C950.186 474.595 950.353 474.011 950.353 473.352C950.353 472.678 950.182 472.083 949.841 471.568C949.5 471.045 949.038 470.636 948.455 470.341C947.871 470.038 947.201 469.886 946.443 469.886C945.693 469.886 945.023 470.038 944.432 470.341C943.841 470.636 943.375 471.045 943.034 471.568C942.701 472.083 942.534 472.678 942.534 473.352C942.534 474.011 942.697 474.595 943.023 475.102C943.349 475.602 943.807 475.996 944.398 476.284C944.989 476.564 945.671 476.705 946.443 476.705ZM946.443 466.307C947.095 466.307 947.674 466.174 948.182 465.909C948.69 465.644 949.087 465.277 949.375 464.807C949.663 464.337 949.807 463.795 949.807 463.182C949.807 462.576 949.663 462.045 949.375 461.591C949.087 461.129 948.693 460.769 948.193 460.511C947.693 460.246 947.11 460.114 946.443 460.114C945.784 460.114 945.201 460.246 944.693 460.511C944.186 460.769 943.788 461.129 943.5 461.591C943.22 462.045 943.08 462.576 943.08 463.182C943.08 463.795 943.224 464.337 943.512 464.807C943.799 465.277 944.197 465.644 944.705 465.909C945.212 466.174 945.792 466.307 946.443 466.307ZM971.656 475.636V474.409C971.656 473.477 971.853 472.621 972.247 471.841C972.649 471.053 973.228 470.424 973.986 469.955C974.751 469.477 975.683 469.239 976.781 469.239C977.895 469.239 978.831 469.473 979.588 469.943C980.353 470.413 980.929 471.042 981.316 471.83C981.71 472.61 981.906 473.47 981.906 474.409V475.636C981.906 476.568 981.71 477.428 981.316 478.216C980.922 478.996 980.342 479.621 979.577 480.091C978.812 480.568 977.88 480.807 976.781 480.807C975.668 480.807 974.732 480.568 973.975 480.091C973.217 479.621 972.641 478.996 972.247 478.216C971.853 477.428 971.656 476.568 971.656 475.636ZM974.963 474.409V475.636C974.963 476.174 975.092 476.682 975.35 477.159C975.615 477.636 976.092 477.875 976.781 477.875C977.471 477.875 977.941 477.64 978.191 477.17C978.448 476.701 978.577 476.189 978.577 475.636V474.409C978.577 473.856 978.456 473.341 978.213 472.864C977.971 472.386 977.494 472.148 976.781 472.148C976.1 472.148 975.626 472.386 975.361 472.864C975.096 473.341 974.963 473.856 974.963 474.409ZM959.713 462.318V461.091C959.713 460.152 959.914 459.292 960.316 458.511C960.717 457.723 961.297 457.095 962.054 456.625C962.819 456.155 963.744 455.92 964.827 455.92C965.948 455.92 966.888 456.155 967.645 456.625C968.403 457.095 968.978 457.723 969.372 458.511C969.766 459.292 969.963 460.152 969.963 461.091V462.318C969.963 463.258 969.763 464.117 969.361 464.898C968.967 465.678 968.388 466.303 967.622 466.773C966.865 467.235 965.933 467.466 964.827 467.466C963.721 467.466 962.785 467.231 962.02 466.761C961.263 466.284 960.687 465.659 960.293 464.886C959.906 464.106 959.713 463.25 959.713 462.318ZM963.043 461.091V462.318C963.043 462.871 963.172 463.383 963.429 463.852C963.694 464.322 964.16 464.557 964.827 464.557C965.524 464.557 965.997 464.322 966.247 463.852C966.505 463.383 966.634 462.871 966.634 462.318V461.091C966.634 460.538 966.513 460.023 966.27 459.545C966.028 459.068 965.547 458.83 964.827 458.83C964.153 458.83 963.687 459.072 963.429 459.557C963.172 460.042 963.043 460.553 963.043 461.091ZM961.213 480L977.213 456.727H980.191L964.191 480H961.213Z" fill="black"/>
<defs>
<filter id="filter0_d_310_77" x="135" y="133.448" width="744" height="758.552" filterUnits="userSpaceOnUse" color-interpolation-filters="sRGB">
<feFlood flood-opacity="0" result="BackgroundImageFix"/>
<feColorMatrix in="SourceAlpha" type="matrix" values="0 0 0 0 0 0 0 0 0 0 0 0 0 0 0 0 0 0 127 0" result="hardAlpha"/>
<feOffset dy="4"/>
<feGaussianBlur stdDeviation="2"/>
<feComposite in2="hardAlpha" operator="out"/>
<feColorMatrix type="matrix" values="0 0 0 0 0 0 0 0 0 0 0 0 0 0 0 0 0 0 0.25 0"/>
<feBlend mode="normal" in2="BackgroundImageFix" result="effect1_dropShadow_310_77"/>
<feBlend mode="normal" in="SourceGraphic" in2="effect1_dropShadow_310_77" result="shape"/>
</filter>
</defs>
</svg>
