<svg width="56" height="56" viewBox="0 0 56 56" fill="none" xmlns="http://www.w3.org/2000/svg">
<g id="telegram">
<path id="Vector" d="M27.9876 4.66602C23.3727 4.66602 18.8615 6.03449 15.0243 8.59839C11.1872 11.1623 8.1965 14.8065 6.43045 19.0701C4.66441 23.3337 4.20233 28.0252 5.10265 32.5515C6.00297 37.0777 8.22526 41.2353 11.4885 44.4985C14.7517 47.7617 18.9093 49.984 23.4355 50.8843C27.9618 51.7847 32.6533 51.3226 36.9169 49.5565C41.1805 47.7905 44.8247 44.7998 47.3886 40.9627C49.9525 37.1255 51.321 32.6142 51.321 27.9993C51.3212 24.9351 50.7179 21.9008 49.5453 19.0698C48.3728 16.2387 46.6541 13.6664 44.4874 11.4996C42.3206 9.33287 39.7483 7.61416 36.9172 6.44164C34.0862 5.26912 31.0519 4.66576 27.9876 4.66602ZM35.4065 40.0218C35.3192 40.2395 35.1863 40.4361 35.0168 40.5983C34.8472 40.7606 34.645 40.8847 34.4236 40.9623C34.2022 41.04 33.9667 41.0694 33.733 41.0487C33.4993 41.0279 33.2727 40.9574 33.0685 40.8419L26.7343 35.9201L22.6689 39.6707C22.5745 39.7404 22.4642 39.7852 22.348 39.8011C22.2318 39.817 22.1134 39.8034 22.0039 39.7615L22.7832 32.7885L22.8081 32.8083L22.8241 32.6706C22.8241 32.6706 34.2224 22.2931 34.6867 21.8509C35.1568 21.4099 35.0017 21.3143 35.0017 21.3143C35.0285 20.7764 34.1582 21.3143 34.1582 21.3143L19.0556 31.0303L12.7662 28.8883C12.7662 28.8883 11.8002 28.5418 11.7092 27.78C11.6135 27.024 12.7976 26.6133 12.7976 26.6133L37.804 16.6792C37.804 16.6792 39.8596 15.7633 39.8596 17.28L35.4065 40.0218Z" fill="#F6F6F6"/>
</g>
</svg>
