<svg width="56" height="56" viewBox="0 0 56 56" fill="none" xmlns="http://www.w3.org/2000/svg">
<g id="X Logo">
<path id="Vector" d="M53.1562 42.9405C53.1562 48.5592 48.5592 53.1562 42.9405 53.1562H13.0595C7.44078 53.1562 2.84375 48.5592 2.84375 42.9405V13.0595C2.84375 7.44089 7.44078 2.84375 13.0595 2.84375H42.9405C48.5592 2.84375 53.1562 7.44089 53.1562 13.0595V42.9405Z" fill="#F6F6F6"/>
<path id="Vector_2" d="M31.7652 25.4921L43.8676 10.4082H40.3621L30.013 23.3079L19.6629 10.4082H8.10742L24.2348 30.5091L12.1313 45.5941H15.6368L25.987 32.6934L36.3382 45.5941H47.8937L31.7652 25.4921ZM13.8059 13.1425H18.3504L42.1941 42.8597H37.6496L13.8059 13.1425Z" fill="#1E1E1E"/>
</g>
</svg>
